<?xml version="1.0" encoding="UTF-8"?>
<svg width="510px" height="345px" viewBox="0 0 510 345" version="1.1" xmlns="http://www.w3.org/2000/svg" xmlns:xlink="http://www.w3.org/1999/xlink">
    <!-- Generator: Sketch 49 (51002) - http://www.bohemiancoding.com/sketch -->
    <title>ssl-icon</title>
    <desc>Created with Sketch.</desc>
    <defs></defs>
    <g id="new" stroke="none" stroke-width="1" fill="none" fill-rule="evenodd">
        <g id="ssl-vs-ssl" transform="translate(-971.000000, -739.000000)">
            <g id="Group-29" transform="translate(971.000000, 675.000000)">
                <g id="ssl-icon">
                    <g id="macbook-(1)" transform="translate(0.000000, 64.000000)" fill-rule="nonzero">
                        <path d="M510,294.524138 L510,302.393103 C510,315.376847 499.24203,326 486.093513,326 L23.9064871,326 C10.7579698,325.999001 0,315.376847 0,302.393103 L0,294.524138 L510,294.524138 Z" id="Shape" fill="#E4E7E7"></path>
                        <path d="M219.754703,286.655172 L291.368645,286.655172 C298.131824,286.655172 303.303965,291.770167 303.303965,298.458621 C303.303965,305.147075 298.131824,310.262069 291.368645,310.262069 L219.754703,310.262069 C212.991524,310.262069 207.819383,305.147075 207.819383,298.458621 C207.819383,292.163781 212.991524,286.655172 219.754703,286.655172 Z" id="Shape" fill="#C8CBCB"></path>
                        <path d="M63.1236731,0 L445.752979,0 C454.521963,0 461.696035,7.19121425 461.696035,15.9811524 L461.696035,295.648276 L47.1806167,295.648276 L47.1806167,15.980138 C47.1816287,7.19121425 54.3557005,0 63.1236731,0 Z" id="Shape" fill="#36434F"></path>
                        <polygon id="Shape" fill="#506F8E" points="71.8942731 23.6068966 438.105727 23.6068966 438.105727 270.917241 71.8942731 270.917241"></polygon>
                        <g id="text-lines" transform="translate(142.665198, 30.351724)">
                            <ellipse id="Oval" fill="#6FC5D6" cx="220.737885" cy="5.05862069" rx="5.05506608" ry="5.05862069"></ellipse>
                            <ellipse id="Oval" fill="#F14742" cx="243.204846" cy="5.05862069" rx="5.05506608" ry="5.05862069"></ellipse>
                            <ellipse id="Oval" fill="#6FC5D6" cx="197.147577" cy="5.05862069" rx="5.05506608" ry="5.05862069"></ellipse>
                            <g id="Group" transform="translate(0.000000, 60.703448)" fill="#42627F">
                                <path d="M224.869939,36.9743556 L5.41640494,36.9743556 C2.66115158,36.9743556 0.4290106,34.7302643 0.4290106,31.9628845 C0.4290106,29.1955047 2.66173606,26.9514134 5.41640494,26.9514134 L224.870523,26.9514134 C227.625777,26.9514134 229.857917,29.1955047 229.857917,31.9628845 C229.857917,34.7302643 227.625192,36.9743556 224.869939,36.9743556 Z" id="Shape"></path>
                                <path d="M224.869939,10.2449434 L5.41640494,10.2449434 C2.66115158,10.2449434 0.4290106,8.00085213 0.4290106,5.23347232 C0.4290106,2.4660925 2.66173606,0.222001182 5.41640494,0.222001182 L224.870523,0.222001182 C227.625777,0.222001182 229.857917,2.4660925 229.857917,5.23347232 C229.857917,8.00085213 227.625192,10.2449434 224.869939,10.2449434 Z" id="Shape"></path>
                                <path d="M101.842674,90.4320054 L5.41640494,90.4320054 C2.66115158,90.4320054 0.4290106,88.1879141 0.4290106,85.4205343 C0.4290106,82.6531545 2.66173606,80.4090631 5.41640494,80.4090631 L101.843259,80.4090631 C104.598512,80.4090631 106.830653,82.6531545 106.830653,85.4205343 C106.830653,88.1879141 104.597928,90.4320054 101.842674,90.4320054 Z" id="Shape"></path>
                                <path d="M101.842674,63.7031805 L5.41640494,63.7031805 C2.66115158,63.7031805 0.4290106,61.4590892 0.4290106,58.6917094 C0.4290106,55.9237423 2.66173606,53.6802383 5.41640494,53.6802383 L101.843259,53.6802383 C104.598512,53.6802383 106.830653,55.9243296 106.830653,58.6917094 C106.830653,61.4590892 104.597928,63.7031805 101.842674,63.7031805 Z" id="Shape"></path>
                                <path d="M101.842674,117.16083 L5.41640494,117.16083 C2.66115158,117.16083 0.4290106,114.916739 0.4290106,112.149359 C0.4290106,109.381979 2.66173606,107.137888 5.41640494,107.137888 L101.843259,107.137888 C104.598512,107.137888 106.830653,109.381979 106.830653,112.149359 C106.830653,114.916739 104.597928,117.16083 101.842674,117.16083 Z" id="Shape"></path>
                                <path d="M101.842674,143.889655 L5.41640494,143.889655 C2.66115158,143.889655 0.4290106,141.645564 0.4290106,138.878184 C0.4290106,136.110804 2.66173606,133.866713 5.41640494,133.866713 L101.843259,133.866713 C104.598512,133.866713 106.830653,136.110804 106.830653,138.878184 C106.830653,141.645564 104.597928,143.889655 101.842674,143.889655 Z" id="Shape"></path>
                            </g>
                            <rect id="Rectangle-path" fill="#42627F" x="128.061674" y="119.158621" width="96.6079295" height="106.793103"></rect>
                            <path d="M101.71525,230.448276 L5.00222595,230.448276 C2.23877896,230.448276 0,228.183071 0,225.389655 C0,222.596239 2.23936518,220.331034 5.00222595,220.331034 L101.715836,220.331034 C104.479283,220.331034 106.718062,222.596239 106.718062,225.389655 C106.718062,228.183071 104.478696,230.448276 101.71525,230.448276 Z" id="Shape" fill="#42627F"></path>
                        </g>
                        <g id="browser-(1)" transform="translate(70.770925, 23.485836)">
                            <polygon id="Shape" fill="#426079" points="367.177858 0.00864721485 0.84771571 0.00864721485 0.84771571 58.238992 367.177858 58.238992"></polygon>
                            <path d="M220.962555,43.1755438 L30.7797357,43.1755438 C23.0286344,43.1755438 16.7378855,36.8803714 16.7378855,29.1238196 C16.7378855,21.3672679 23.0286344,15.0720955 30.7797357,15.0720955 L220.962555,15.0720955 C228.713656,15.0720955 235.004405,21.3672679 235.004405,29.1238196 C235.004405,36.8803714 228.713656,43.1755438 220.962555,43.1755438 Z" id="Shape" fill="#FFFFFF"></path>
                            <ellipse id="Oval" fill="#FF7058" cx="338.464758" cy="29.3486472" rx="14.3788546" ry="14.3889655"></ellipse>
                            <ellipse id="Oval" fill="#ACB3BA" cx="297.125551" cy="29.3486472" rx="14.3788546" ry="14.3889655"></ellipse>
                        </g>
                    </g>
                    <g id="Fill-11-Clipped" transform="translate(0.000000, 171.000000)" fill="#588C18" fill-rule="nonzero">
                        <polygon id="Fill-11" points="47.3831582 51.0255103 0 77.0784321 0 26.4105285 47.3831582 0.357606799"></polygon>
                    </g>
                    <g id="Fill-12-Clipped" transform="translate(461.000000, 171.000000)" fill="#588C18" fill-rule="nonzero">
                        <polygon id="Fill-12" points="0.779119729 51.0255103 48.0595302 77.0772515 48.0595302 26.4105285 0.779119729 0.357606799"></polygon>
                    </g>
                    <g id="Fill-13-Clipped" transform="translate(0.000000, 197.000000)" fill="#88CD32" fill-rule="nonzero">
                        <polygon id="Fill-13" points="0 84.5553247 509.24035 84.5553247 509.24035 0.884395408 0 0.884395408"></polygon>
                    </g>
                    <g id="Fill-15-Clipped" transform="translate(195.000000, 310.000000)">
                        <path d="M10.5495112,6.69614602e-08 C7.75151066,-0.000316115634 5.06801884,1.1191066 3.08953368,3.11194108 C1.11104852,5.10477557 -0.000313839456,7.8077299 6.64793068e-08,10.6260234 L6.64793068e-08,88.5827741 C0.000653287404,94.0885713 4.43133591,98.5519218 9.89748869,98.553238 L112.114737,98.553238 C117.580428,98.5512639 122.01039,94.088106 122.011043,88.5827741 L122.011043,10.6260234 C122.011043,4.75697811 117.2895,6.69614602e-08 111.467448,6.69614602e-08 L10.5495112,6.69614602e-08 Z" id="Fill-15" fill="#FFC500" fill-rule="nonzero"></path>
                        <path d="M40.2450936,67.9466043 C40.2450936,67.2849794 40.1597202,66.6886554 39.988971,66.1576144 C39.8182218,65.6265734 39.4883702,65.134715 38.9994065,64.6820243 C38.5104427,64.2293336 37.8352172,63.7853551 36.9737097,63.3500756 C36.1122021,62.9147961 34.9984681,62.4534067 33.6324741,61.9658937 C32.0802083,61.4087359 30.6172196,60.7819428 29.2434644,60.0854956 C27.8697091,59.3890484 26.6667211,58.5663824 25.6344643,57.6174731 C24.6022075,56.6685638 23.7872802,55.5760286 23.1896578,54.3398348 C22.5920355,53.103641 22.2932288,51.6585347 22.2932288,50.0044725 C22.2932288,48.4200551 22.5997967,46.9705961 23.2129417,45.6560519 C23.8260867,44.3415078 24.6875813,43.2228563 25.7974514,42.3000637 C26.9073215,41.3772711 28.2267277,40.6590707 29.7557095,40.1454409 C31.2846914,39.6318111 32.964994,39.375 34.7966677,39.375 C36.6749094,39.375 38.3823762,39.6666329 39.9191194,40.2499074 C41.4558626,40.833182 42.7675075,41.6471425 43.8540936,42.6918133 C44.9406797,43.7364841 45.7788907,44.9770121 46.3687518,46.4134345 C46.9586128,47.8498569 47.2535389,49.4211924 47.2535389,51.127488 L40.2683775,51.127488 C40.2683775,50.3265737 40.1558399,49.5866097 39.9307613,48.9075736 C39.7056828,48.2285376 39.3603088,47.6452718 38.894629,47.1577588 C38.4289493,46.6702457 37.8468583,46.2915582 37.1483387,46.0216849 C36.4498191,45.7518116 35.6271305,45.616877 34.6802483,45.616877 C33.7644115,45.616877 32.9688872,45.730048 32.2936515,45.9563933 C31.6184159,46.1827387 31.0596085,46.4961352 30.6172128,46.8965923 C30.174817,47.2970495 29.8410849,47.7671443 29.6160063,48.3068909 C29.3909278,48.8466375 29.2783902,49.4211978 29.2783902,50.0305892 C29.2783902,51.2841942 29.8488393,52.333202 30.9897547,53.1776443 C32.1306701,54.0220865 33.8032115,54.8099306 36.007429,55.5412002 C37.8546254,56.1854139 39.4805994,56.8992616 40.8854,57.6827647 C42.2902006,58.4662678 43.4621438,59.3542247 44.4012646,60.346662 C45.3403855,61.3390993 46.0505364,62.4533981 46.5317388,63.6895919 C47.0129413,64.9257857 47.2535389,66.3273648 47.2535389,67.894371 C47.2535389,69.5658443 46.9624934,71.0544779 46.3803937,72.3603165 C45.798294,73.666155 44.9717248,74.7673956 43.9006614,75.6640714 C42.8295979,76.5607472 41.537356,77.2484785 40.0238968,77.727286 C38.5104376,78.2060935 36.8223738,78.4454936 34.9596548,78.4454936 C33.8420234,78.4454936 32.7244087,78.3366753 31.6067773,78.1190356 C30.4891459,77.9013958 29.4219791,77.5662356 28.405245,77.1135449 C27.3885109,76.6608543 26.4455235,76.0949994 25.5762546,75.4159633 C24.7069857,74.7369273 23.9502675,73.936025 23.3060772,73.0132325 C22.6618868,72.0904399 22.157408,71.041432 21.7926255,69.8661773 C21.427843,68.6909226 21.2454545,67.3894564 21.2454545,65.9617396 L28.2538998,65.9617396 C28.2538998,67.1108775 28.4168853,68.085889 28.7428611,68.8868033 C29.068837,69.6877176 29.5228679,70.3362744 30.1049676,70.832493 C30.6870673,71.3287116 31.3894571,71.6899882 32.212158,71.9163336 C33.0348589,72.1426789 33.950682,72.2558499 34.9596548,72.2558499 C35.859969,72.2558499 36.6438515,72.1470316 37.3113258,71.9293919 C37.9788001,71.7117521 38.5298462,71.4114138 38.9644807,71.0283678 C39.3991151,70.6453218 39.7212054,70.1882852 39.9307613,69.6572442 C40.1403172,69.1262032 40.2450936,68.5559956 40.2450936,67.9466043 Z M68.9236827,67.9466043 C68.9236827,67.2849794 68.8383094,66.6886554 68.6675601,66.1576144 C68.4968109,65.6265734 68.1669594,65.134715 67.6779956,64.6820243 C67.1890319,64.2293336 66.5138064,63.7853551 65.6522988,63.3500756 C64.7907913,62.9147961 63.6770572,62.4534067 62.3110633,61.9658937 C60.7587974,61.4087359 59.2958088,60.7819428 57.9220535,60.0854956 C56.5482982,59.3890484 55.3453102,58.5663824 54.3130534,57.6174731 C53.2807967,56.6685638 52.4658693,55.5760286 51.868247,54.3398348 C51.2706246,53.103641 50.9718179,51.6585347 50.9718179,50.0044725 C50.9718179,48.4200551 51.2783858,46.9705961 51.8915308,45.6560519 C52.5046758,44.3415078 53.3661705,43.2228563 54.4760405,42.3000637 C55.5859106,41.3772711 56.9053168,40.6590707 58.4342987,40.1454409 C59.9632805,39.6318111 61.6435831,39.375 63.4752568,39.375 C65.3534985,39.375 67.0609653,39.6666329 68.5977085,40.2499074 C70.1344517,40.833182 71.4460967,41.6471425 72.5326828,42.6918133 C73.6192689,43.7364841 74.4574799,44.9770121 75.0473409,46.4134345 C75.6372019,47.8498569 75.932128,49.4211924 75.932128,51.127488 L68.9469666,51.127488 C68.9469666,50.3265737 68.834429,49.5866097 68.6093505,48.9075736 C68.3842719,48.2285376 68.0388979,47.6452718 67.5732182,47.1577588 C67.1075384,46.6702457 66.5254475,46.2915582 65.8269278,46.0216849 C65.1284082,45.7518116 64.3057196,45.616877 63.3588375,45.616877 C62.4430006,45.616877 61.6474763,45.730048 60.9722407,45.9563933 C60.297005,46.1827387 59.7381977,46.4961352 59.2958019,46.8965923 C58.8534062,47.2970495 58.519674,47.7671443 58.2945955,48.3068909 C58.0695169,48.8466375 57.9569793,49.4211978 57.9569793,50.0305892 C57.9569793,51.2841942 58.5274285,52.333202 59.6683439,53.1776443 C60.8092593,54.0220865 62.4818006,54.8099306 64.6860181,55.5412002 C66.5332145,56.1854139 68.1591886,56.8992616 69.5639892,57.6827647 C70.9687898,58.4662678 72.1407329,59.3542247 73.0798538,60.346662 C74.0189746,61.3390993 74.7291256,62.4533981 75.210328,63.6895919 C75.6915304,64.9257857 75.932128,66.3273648 75.932128,67.894371 C75.932128,69.5658443 75.6410825,71.0544779 75.0589828,72.3603165 C74.4768831,73.666155 73.650314,74.7673956 72.5792505,75.6640714 C71.5081871,76.5607472 70.2159452,77.2484785 68.702486,77.727286 C67.1890267,78.2060935 65.500963,78.4454936 63.6382439,78.4454936 C62.5206125,78.4454936 61.4029979,78.3366753 60.2853665,78.1190356 C59.167735,77.9013958 58.1005683,77.5662356 57.0838341,77.1135449 C56.0671,76.6608543 55.1241126,76.0949994 54.2548438,75.4159633 C53.3855749,74.7369273 52.6288566,73.936025 51.9846663,73.0132325 C51.340476,72.0904399 50.8359971,71.041432 50.4712147,69.8661773 C50.1064322,68.6909226 49.9240437,67.3894564 49.9240437,65.9617396 L56.932489,65.9617396 C56.932489,67.1108775 57.0954744,68.085889 57.4214503,68.8868033 C57.7474261,69.6877176 58.2014571,70.3362744 58.7835568,70.832493 C59.3656564,71.3287116 60.0680462,71.6899882 60.8907471,71.9163336 C61.713448,72.1426789 62.6292711,72.2558499 63.6382439,72.2558499 C64.5385581,72.2558499 65.3224406,72.1470316 65.9899149,71.9293919 C66.6573893,71.7117521 67.2084354,71.4114138 67.6430698,71.0283678 C68.0777042,70.6453218 68.3997946,70.1882852 68.6093505,69.6572442 C68.8189064,69.1262032 68.9236827,68.5559956 68.9236827,67.9466043 Z M87.0081104,71.6290505 L101.839936,71.6290505 L101.839936,77.9231608 L80.022949,77.9231608 L80.022949,39.8973328 L87.0081104,39.8973328 L87.0081104,71.6290505 Z" id="SSL-Copy-7" fill="#FFFFFF"></path>
                    </g>
                    <g id="Fill-16-Clipped" transform="translate(195.000000, 309.000000)" fill="#FFDD4B" fill-rule="nonzero">
                        <path d="M122.192683,11.2408657 C122.192683,16.6251943 117.772894,20.9897637 112.317678,20.9897637 L10.0483624,20.9897637 C4.59314685,20.9897637 0.173357279,16.6263598 0.173357279,11.2408657 C0.173357279,5.50224363 4.88661615,0.850976204 10.6932848,0.850976204 L111.670389,0.850976204 C117.479424,0.850976204 122.190316,5.50107819 122.190316,11.2408657" id="Fill-16"></path>
                    </g>
                    <g id="Fill-18-Clipped" transform="translate(214.000000, 242.000000)" fill="#ABA9A9" fill-rule="nonzero">
                        <path d="M42.5546802,0.823087819 C19.0748707,0.823087819 0.0330769231,19.5895027 0.0330769231,42.7393913 L0.0330769231,77.0941141 L7.8624743,77.0941141 L7.8624743,42.3025787 C7.8624743,23.4287315 23.4374425,8.07771914 42.5762356,8.07771914 L42.7558638,8.07771914 L42.7558638,0.823087819 L42.5546802,0.823087819 Z" id="Fill-18"></path>
                    </g>
                    <g id="Fill-19-Clipped" transform="translate(257.000000, 242.000000)" fill="#ABA9A9" fill-rule="nonzero">
                        <path d="M0.884796844,0.823087819 L0.884796844,8.07771914 L1.06627745,8.07771914 C20.14562,8.07771914 35.6729573,23.4287315 35.6729573,42.3025787 L35.6729573,77.0941141 L43.4849809,77.0941141 L43.4849809,42.7393913 C43.4849809,19.5883221 24.5047364,0.823087819 1.09373833,0.823087819 L0.884796844,0.823087819 Z" id="Fill-19"></path>
                    </g>
                    <g id="Fill-20-Clipped" fill="#B9B7B7" fill-rule="nonzero">
                        <path d="M291.709301,248.634051 C287.246095,244.153768 281.957391,240.581928 276.135874,238.116204 C270.098435,235.56103 263.608117,234.250717 257.053077,234.263626 L257.005524,242.273371 L257.213566,242.273371 C280.523776,242.273371 299.421119,261.186459 299.421119,284.51728 L299.421119,319.1417 L306.071403,319.1417 L306.071329,283.326289 C306.082762,276.764037 304.77235,270.266814 302.218392,264.222833 C299.757866,258.394057 296.188631,253.099592 291.709301,248.634051 Z" id="Fill-20"></path>
                    </g>
                    <g id="Fill-21-Clipped" fill="#B9B7B7" fill-rule="nonzero">
                        <path d="M256.804615,242.273333 L257.004336,242.273333 L257.004336,234.264731 C250.453498,234.256126 243.968142,235.569251 237.935804,238.125682 C232.102443,240.594323 226.801862,244.170046 222.326713,248.655433 C217.842106,253.133696 214.268991,258.440863 211.805734,264.282296 C209.242303,270.332901 207.928078,276.839893 207.942098,283.411937 L207.941987,319.1417 L214.592308,319.1417 L214.592308,284.517263 C214.592308,261.18524 233.494406,242.273333 256.804615,242.273333" id="Fill-21"></path>
                    </g>
                    <g id="Fill-23-Clipped"></g>
                    <g id="Fill-24-Clipped" transform="translate(250.000000, 225.000000)" fill="#36434F" fill-rule="nonzero">
                        <path d="M12.8859596,32.2759575 C12.8859596,33.3248527 12.0719697,34.1746962 11.0665202,34.1746962 L2.18027273,34.1746962 C1.17378709,34.1720662 0.359564926,33.3223566 0.360833333,32.2759575 L0.360833333,1.9724221 C0.360833333,0.922334986 1.17940909,0.0736834278 2.18027273,0.0736834278 L11.0653737,0.0736834278 C12.0719697,0.0736834278 12.8859596,0.922334986 12.8859596,1.9724221 L12.8859596,32.2759575 Z" id="Fill-24"></path>
                    </g>
                    <g id="Fill-25-Clipped" transform="translate(250.000000, 254.000000)" fill="#231F1F" fill-rule="nonzero">
                        <path d="M11.0665197,2.39636261 L2.18026996,2.39636261 C1.69681206,2.39535198 1.23351745,2.18140254 0.892306103,1.80158092 C0.551094754,1.4217593 0.359917056,0.907178663 0.360826845,0.37104136 L0.360830101,3.09435467 C0.360830101,4.21444759 1.17940607,5.11967592 2.18026996,5.11967592 L11.0665197,5.11967592 C12.0719695,5.11967592 12.8859596,4.21444759 12.8859596,3.09435467 L12.8859596,0.37104136 C12.8859596,1.49240567 12.0719695,2.39636261 11.0665197,2.39636261" id="Fill-25"></path>
                    </g>
                    <g id="Fill-26-Clipped" transform="translate(250.000000, 225.000000)" fill="#231F1F" fill-rule="nonzero">
                        <path d="M11.0665202,0.113449481 L2.18027273,0.113449481 C1.17940909,0.113449481 0.360833333,0.993532578 0.360833333,2.0825118 L0.360833333,5.17021907 C0.360833333,4.08371199 1.17940909,3.20486497 2.18027273,3.20486497 L11.0665202,3.20486497 C12.0719697,3.20486497 12.8859596,4.08371199 12.8859596,5.17021907 L12.8859596,2.0825118 C12.8859596,0.99476865 12.0719697,0.113449481 11.0665202,0.113449481" id="Fill-26"></path>
                    </g>
                    <path d="M105.993633,112.901298 C106.6718,112.04731 107.538335,111.620322 108.593262,111.620322 C109.717262,111.620322 110.564958,111.953121 111.136377,112.61873 C111.707796,113.284339 111.999781,114.267039 112.012339,115.56686 L112.012339,122 L108.828736,122 L108.828736,115.642212 C108.828736,115.102189 108.718849,114.705028 108.499073,114.450715 C108.279296,114.196402 107.905682,114.069248 107.378218,114.069248 C106.725168,114.069248 106.263644,114.276462 105.993633,114.690898 L105.993633,122 L102.819448,122 L102.819448,107.532499 L105.993633,107.532499 L105.993633,112.901298 Z M117.948993,109.275004 L117.948993,111.808701 L119.625565,111.808701 L119.625565,114.012734 L117.948993,114.012734 L117.948993,118.675112 C117.948993,119.058151 118.018064,119.325019 118.15621,119.475723 C118.294355,119.626426 118.567501,119.701777 118.975658,119.701777 C119.289624,119.701777 119.553352,119.68294 119.766849,119.645264 L119.766849,121.915229 C119.19543,122.09733 118.598903,122.188379 117.97725,122.188379 C116.884646,122.188379 116.077765,121.93093 115.55658,121.416025 C115.035396,120.90112 114.774808,120.119356 114.774808,119.070708 L114.774808,114.012734 L113.474993,114.012734 L113.474993,111.808701 L114.774808,111.808701 L114.774808,109.275004 L117.948993,109.275004 Z M125.044176,109.275004 L125.044176,111.808701 L126.720749,111.808701 L126.720749,114.012734 L125.044176,114.012734 L125.044176,118.675112 C125.044176,119.058151 125.113248,119.325019 125.251393,119.475723 C125.389538,119.626426 125.662685,119.701777 126.070841,119.701777 C126.384808,119.701777 126.648536,119.68294 126.862033,119.645264 L126.862033,121.915229 C126.290614,122.09733 125.694087,122.188379 125.072433,122.188379 C123.97983,122.188379 123.172948,121.93093 122.651764,121.416025 C122.13058,120.90112 121.869992,120.119356 121.869992,119.070708 L121.869992,114.012734 L120.570177,114.012734 L120.570177,111.808701 L121.869992,111.808701 L121.869992,109.275004 L125.044176,109.275004 Z M137.903755,116.979702 C137.903755,118.562093 137.547408,119.825789 136.834705,120.770828 C136.122001,121.715867 135.159708,122.188379 133.947798,122.188379 C133.012178,122.188379 132.242971,121.846161 131.640156,121.161714 L131.640156,125.918281 L128.465971,125.918281 L128.465971,111.808701 L131.432939,111.808701 L131.527129,112.750595 C132.136223,111.997076 132.936826,111.620322 133.92896,111.620322 C135.184825,111.620322 136.161246,112.083415 136.858252,113.009616 C137.555257,113.935817 137.903755,115.208932 137.903755,116.828999 L137.903755,116.979702 Z M134.72957,116.781904 C134.72957,114.973457 134.202114,114.069248 133.147187,114.069248 C132.393668,114.069248 131.891329,114.339255 131.640156,114.879277 L131.640156,118.891748 C131.916446,119.456887 132.425064,119.739453 133.166025,119.739453 C134.176997,119.739453 134.698174,118.866639 134.72957,117.120986 L134.72957,116.781904 Z M145.111966,119.13664 C145.111966,118.866629 144.970683,118.649996 144.688113,118.486733 C144.405544,118.323471 143.868669,118.153931 143.077474,117.97811 C142.286278,117.802289 141.633238,117.571527 141.118333,117.285818 C140.603428,117.000108 140.210976,116.65318 139.940965,116.245024 C139.670954,115.836868 139.53595,115.369065 139.53595,114.841601 C139.53595,113.905981 139.922123,113.135205 140.69448,112.52925 C141.466838,111.923295 142.477795,111.620322 143.727381,111.620322 C145.071157,111.620322 146.151186,111.924865 146.967498,112.53396 C147.783811,113.143054 148.191961,113.943657 148.191961,114.935791 L145.008358,114.935791 C145.008358,114.119478 144.57823,113.711328 143.717962,113.711328 C143.385158,113.711328 143.105732,113.803946 142.879676,113.989187 C142.65362,114.174427 142.540594,114.405189 142.540594,114.681479 C142.540594,114.964049 142.678737,115.193241 142.955027,115.369062 C143.231318,115.544883 143.672434,115.689306 144.278389,115.802334 C144.884344,115.915362 145.41651,116.050365 145.874901,116.207348 C147.407057,116.734812 148.173123,117.679837 148.173123,119.042451 C148.173123,119.971792 147.760264,120.728439 146.934532,121.312417 C146.1088,121.896395 145.039761,122.188379 143.727381,122.188379 C142.854554,122.188379 142.075929,122.031398 141.391482,121.717432 C140.707036,121.403465 140.173301,120.976477 139.790262,120.436455 C139.407223,119.896433 139.215706,119.328162 139.215706,118.731626 L142.182674,118.731626 C142.195232,119.202575 142.352213,119.546364 142.653621,119.763 C142.955029,119.979637 143.341202,120.087954 143.812151,120.087954 C144.245425,120.087954 144.570375,120.000045 144.787012,119.824224 C145.003649,119.648402 145.111966,119.41921 145.111966,119.13664 Z" id="https" fill="#324A5E"></path>
                </g>
            </g>
        </g>
    </g>
</svg>